<!-- icon666.com - MILLIONS vector ICONS FREE -->
<svg id="Flat_gradient" viewBox="0 0 32 32" xmlns="http://www.w3.org/2000/svg"
     xmlns:xlink="http://www.w3.org/1999/xlink" data-name="Flat gradient">
  <linearGradient id="linear-gradient" gradientUnits="userSpaceOnUse" x1="1.995" x2="30.004" y1="15.998" y2="15.998">
    <stop offset="0" stop-color="#4ac42b"></stop>
    <stop offset="1" stop-color="#50735f"></stop>
  </linearGradient>
  <path
    d="m28.95 3.05a3.59917 3.59917 0 0 0 -2.71-1.05l-5.78.27a6.16582 6.16582 0 0 0 -4.08 1.81l-13.71 13.71a2.28156 2.28156 0 0 0 0 3.24l8.29 8.3a2.30806 2.30806 0 0 0 1.63.67 2.28487 2.28487 0 0 0 1.62-.67l13.71-13.71a6.21308 6.21308 0 0 0 1.81-4.08l.27-5.78a3.57643 3.57643 0 0 0 -1.05-2.71zm-6.95 2.99a3.96 3.96 0 1 1 -3.96 3.96 3.96911 3.96911 0 0 1 3.96-3.96zm-1.96 3.96a1.96 1.96 0 1 1 1.96 1.96 1.96319 1.96319 0 0 1 -1.96-1.96z"
    fill="url(#linear-gradient)"></path>
</svg>
